<?xml version="1.0" encoding="utf-8"?>
<!-- Generator: Adobe Illustrator 28.4.1, SVG Export Plug-In . SVG Version: 6.00 Build 0)  -->
<svg version="1.1" xmlns="http://www.w3.org/2000/svg" xmlns:xlink="http://www.w3.org/1999/xlink" x="0px" y="0px"
	 viewBox="369 -880 1182 684" style="enable-background:new 369 -880 1182 684;" xml:space="preserve">
<style type="text/css">
	.st0{fill-rule:evenodd;clip-rule:evenodd;fill:#010101;}
</style>
<g id="New_Layer">
	<g>
		<path class="st0" d="M369.5-878.8c-0.3,0.7-0.4,153.4-0.3,339.3l0.3,338l590.8,0.3L1551-196l-0.2-344.2l-0.3-339.3l-590.3-0.3
			C488.5-880,369.8-879.8,369.5-878.8z M1401.4-804.5c13.9,7.8,39.6,29.5,64.1,54c25,25,42.1,45.4,52.3,62.5
			c10.2,17.1,15.6,38.7,13.2,53.5c-1.4,8.6-2.8,11.6-6.1,13.2c-6.5,3.1-59.8,8.1-95.9,8.9c-23.1,0.6-31,0-31.7-2.3
			c-1.1-3.1,11.6-7,49.2-15.3c31.3-6.9,44.7-10.5,51.4-13.8l5.6-2.8l-0.1-5.1c-0.3-10-10.4-26.2-29.8-47.6
			c-28.9-31.9-75.7-67.4-89.7-68c-4.7-0.2-8.8,3.3-12.7,10.8c-2.1,4-2.7,6.8-3,14.2c-0.6,13.6-0.2,14.1,19.7,21.2
			c21.9,7.8,32.6,15.3,38.3,26.9c3.1,6.2,3.3,7.3,3.3,17.2c0,13.7-1.7,17.4-13.4,29c-6.5,6.5-10.4,9.5-16.1,12.2
			c-13.9,6.8-30.7,9.4-53.5,8.4l-14-0.7l-9,5.2c-31,17.7-79.2,53.6-87.7,65.3c-3.7,5-3.3,9.1,1.2,14.7c1.6,2.1,3,4.9,3,6.3v2.4
			l-9.2-0.4c-5.1-0.2-33.8-0.9-63.8-1.5c-30-0.6-54.8-1.4-55.1-1.7c-0.4-0.4-1.2-2.5-1.9-4.7c-3.2-10.2-10.6-22-24.8-39.6
			c-5.6-7-10.2-12.9-10.2-13.3c0-1.2,3.8,0.9,10.6,6c9.2,6.9,23.3,21,30.1,30.1l5.4,7.2l6.7,0.8c3.7,0.4,20.7,0.8,37.8,0.8h31.1
			l13.4-13c29.3-28.3,73.7-62,97.2-73.5c8.1-3.9,8.6-4,31.2-6.5c64.2-7.1,78.5-12.2,78.5-27.9c0-6.4-2.6-12.1-8.1-18.1
			c-7.2-7.8-17.9-13.6-47.3-25.6c-3.3-1.3-7.3-3.7-8.9-5.2c-2.9-2.7-3-2.9-2.4-10.2c1.3-15,7.4-36.9,13.9-50
			c8.1-16.2,19.7-27.3,28.7-27.5C1394.2-808,1398.1-806.4,1401.4-804.5z M1012-553.6c15.7,3.4,26.9,10.2,33.9,20.7
			c4.2,6.2,8.1,16.9,8.1,21.9v2.8l-14.5,0.7c-7.9,0.4-15.1,0.5-15.8,0.2c-0.8-0.3-1.7-2.3-2-4.4c-1-6.1-5.9-12.1-12.5-15.1
			c-4.8-2.2-7.2-2.6-14.7-2.6c-16.4-0.1-24.3,4.3-25.3,14.3c-0.9,9.4,3.9,13.6,27.3,23.7c34.7,14.9,43.2,22.1,46.5,39.2
			c4.6,23.1-12.6,46.4-39.5,53.8c-8.2,2.2-28.3,3-38.6,1.4c-9.2-1.3-22.1-5.6-27.1-9.1c-12.6-8.6-19.8-21.9-19.8-36.7v-4.9l14.9-0.8
			c8.3-0.4,15.4-0.4,15.9-0.1c0.5,0.3,1.2,3.3,1.5,6.6c0.8,9.7,5.6,15.4,15.1,18.2c5.3,1.5,24.9,1.5,30.2,0
			c13.4-3.9,19.4-17.2,11.7-26.2c-2.8-3.4-10.7-7.6-32-16.9c-22.4-9.9-31.8-17.5-35.8-29.1c-8.9-25.6,7.3-51.3,36-57.4
			C984.5-555.3,1003.6-555.4,1012-553.6z M465-550.3c0.2,7.6,4.9,100.5,5.2,100.8c0.2,0.2,11.3-22.8,24.8-51l24.5-51.4l23.7-0.1
			c22,0,23.6,0.1,23.2,1.7c-0.2,1-6.5,34.4-13.9,74.3s-13.7,73.5-14,74.7c-0.5,2.3-0.8,2.3-15.6,2.3h-15.1l0.5-2.3
			c2.3-8.8,25.6-118.1,25.4-118.4c-0.2-0.2-13.1,26.9-28.7,60.2L476.7-399H461h-15.7l-0.6-9.8c-0.3-5.3-1.6-33-2.9-61.4
			c-1.2-28.4-2.4-51.5-2.7-51.3c-0.2,0.3-5.9,27.8-12.5,61.2l-12.2,60.8l-15.1,0.3l-15.2,0.3l0.9-3.3c0.5-1.8,7.9-35.7,16.5-75.3
			s15.8-72.6,16-73.3c0.3-0.9,6-1.2,24-1.2C463.2-552,465-551.9,465-550.3z M767.2-528.5l-3.9,18l9.3,0.3l9.3,0.3l-0.6,3.2
			c-0.4,1.8-1.4,6.6-2.3,10.7l-1.6,7.5l-9.5,0.3l-9.5,0.3l-6.8,30.7c-3.6,16.9-6.7,31.7-6.6,32.9c0,4.7,3.2,6.3,12.5,6.3
			c4.7,0,8.5,0.3,8.5,0.7c-0.1,1.7-4.9,19.5-5.4,20.1c-0.4,0.3-5.8,0.8-12.2,1c-19.3,0.8-29.9-3.7-34-14.3c-2.5-6.7-1.5-14.5,6.1-48
			c3.6-15.9,6.5-29.1,6.5-29.2c0-0.2-3.4-0.3-7.5-0.3c-5.3,0-7.5-0.4-7.5-1.3c0-0.6,1-5.6,2.2-11l2.1-9.7h7.8h7.8l1.1-5.8
			c2.4-12,1-10.5,20-21.7c9.6-5.7,17.6-10,17.8-9.6C770.9-546.7,769.3-538.3,767.2-528.5z M1530.2-528.5l-3.9,18l9.3,0.3l9.3,0.3
			l-0.6,3.2c-0.4,1.8-1.4,6.6-2.3,10.7l-1.6,7.5l-9.5,0.3l-9.5,0.3l-6.8,30.7c-3.6,16.9-6.7,31.7-6.6,32.9c0,4.7,3.2,6.3,12.5,6.3
			c4.7,0,8.5,0.3,8.5,0.7c-0.1,1.7-4.9,19.5-5.4,20.1c-0.4,0.3-5.8,0.8-12.2,1c-19.3,0.8-29.9-3.7-34-14.3c-2.5-6.7-1.5-14.5,6.1-48
			c3.6-15.9,6.5-29.1,6.5-29.2c0-0.2-3.4-0.3-7.5-0.3c-5.3,0-7.5-0.4-7.5-1.3c0-0.6,1-5.6,2.2-11l2.1-9.7h7.8h7.8l1.1-5.8
			c2.4-12,1-10.5,20-21.7c9.6-5.7,17.6-10,17.8-9.6C1533.9-546.7,1532.3-538.3,1530.2-528.5z M656.2-511.1
			c25.4,6.5,37.9,24.6,36.5,52.5c-1.5,30.4-21.7,55.3-49.7,61.2c-10,2.1-28.2,1.4-36-1.4c-12.4-4.4-21.6-11.2-26.6-19.7
			c-5.3-9.1-6.7-15.2-6.8-28c0-14,2.2-23.6,8.2-35c7.5-14.4,23.6-26.4,40.2-29.9C631.8-513.5,647.2-513.4,656.2-511.1z M865.2-511.1
			c25.4,6.5,37.9,24.6,36.5,52.5c-1.5,30.4-21.7,55.3-49.7,61.2c-10,2.1-28.2,1.4-36-1.4c-12.4-4.4-21.6-11.2-26.6-19.7
			c-5.3-9.1-6.7-15.2-6.8-28c0-14,2.2-23.6,8.2-35c7.5-14.4,23.6-26.4,40.2-29.9C840.8-513.5,856.2-513.4,865.2-511.1z
			 M1158.9-511.4c6.2,1.8,12.3,7,14.7,12.4l1.7,3.9l5.1-4.5c9.6-8.4,22.6-13.4,35.3-13.4c19.2,0,30.5,11.6,29,29.9
			c-0.4,5.3-15.2,75.6-17.3,82.3c-0.5,1.6-2.1,1.8-16.1,1.8h-15.5l0.5-2.8c0.3-1.5,4.2-19.2,8.6-39.3c4.5-20.2,8.1-38.5,8.1-40.8
			c0-13.3-19-13-30.2,0.4c-6.7,8-8.9,14.9-17.3,53.5l-6.2,28.5l-15.6,0.3c-8.6,0.1-15.7,0-15.7-0.2c0-0.3,3.4-16.4,7.5-35.8
			c11-51.7,10.9-50.7,4.3-54.9c-6.4-4-17.6-0.5-24.8,7.8c-7.1,8.1-8.6,12.9-19.8,65.3l-3.7,17.5l-15.8,0.3c-8.6,0.1-15.7,0.1-15.7,0
			c0-0.2,5.4-25.1,11.9-55.3l11.8-55l14.6-0.3c16.2-0.3,15.3-0.7,13.6,6.7c-0.5,2.4-0.8,4.6-0.5,4.9c0.3,0.2,2.3-1.1,4.5-3
			c5.2-4.4,13.1-8.7,19-10.4C1141.4-513.3,1152.7-513.3,1158.9-511.4z M1340.8-511.5c12,2.9,21.1,9.5,25,18.4
			c2.6,5.9,1.9,16.6-2.2,35.1c-7.2,32.4-7.8,35.9-7.3,45.5c0.3,4.9,0.8,10,1.2,11.2l0.7,2.3h-15.5h-15.6l-0.7-4.8
			c-0.3-2.6-0.8-5-1.1-5.4c-0.2-0.4-3.1,1.2-6.4,3.7c-12.1,8.9-27.6,11.9-39.4,7.5c-8.5-3.2-16.8-11.6-19.1-19.6
			c-2.3-8-1.6-20.1,1.6-26.9c6.4-13.2,18.4-19,44.6-21.4c16.2-1.6,26.1-3.1,28-4.5c1-0.8,1.8-3.4,2.1-7.4c0.6-6,0.5-6.2-2.8-9.5
			c-3.9-3.9-9.2-5.3-16.8-4.2c-6.1,0.8-10.6,3.6-13.3,8.1l-2.1,3.6l-8.1-0.6c-23-1.8-21.8-1.6-21.1-4.5c1-4.4,7.7-13.1,13-17.2
			c10.2-7.7,20.7-10.7,38-10.8C1329.9-512.9,1337.1-512.4,1340.8-511.5z M1471.6-511.9c2.4,0.6,4.6,1.5,4.9,1.9s-2,6-5.1,12.5
			l-5.6,11.7l-5.4-0.7c-7.1-0.9-14.4,1.3-20.9,6.3c-11.1,8.5-15.8,19.7-24.1,58.4l-4.9,22.8h-15.8c-14.6,0-15.8-0.1-15.3-1.8
			c0.3-0.9,5.5-25.1,11.6-53.7s11.3-52.8,11.6-53.8c0.5-1.5,2.1-1.7,15-1.7c7.9,0,14.4,0.4,14.4,0.8c0,0.4-0.9,4.8-1.9,9.6l-2,8.9
			l3.2-3.9C1443.9-510.1,1456.7-515.6,1471.6-511.9z"/>
		<path class="st0" d="M632.5-490.1c-12.4,3.1-21.9,14.8-26,32.4c-4,16.8-0.1,30.3,10.4,36.5c6,3.5,16.4,3.7,22.6,0.5
			c7.9-4.1,15.5-14.3,19.6-26.3c3.2-9.5,3.3-25.8,0.2-31.7C654.2-488.2,643.5-492.7,632.5-490.1z"/>
		<path class="st0" d="M841.5-490.1c-12.4,3.1-21.9,14.8-26,32.4c-4,16.8-0.1,30.3,10.4,36.5c6,3.5,16.4,3.7,22.6,0.5
			c7.9-4.1,15.5-14.3,19.6-26.3c3.2-9.5,3.3-25.8,0.2-31.7C863.2-488.2,852.5-492.7,841.5-490.1z"/>
		<path class="st0" d="M1329.9-450.6c-0.2,0.2-4.2,0.9-8.9,1.6c-13.4,1.7-23.8,4.9-27.6,8.2c-7.8,6.9-5.5,18.6,4.3,21.9
			c6.5,2.1,18.8-1.6,23.9-7.3c3.2-3.4,5.9-9.4,7.8-17.1C1331-449.5,1331.1-451.8,1329.9-450.6z"/>
	</g>
</g>
<g id="MasterLayer_1">
</g>
</svg>
